# xmcd CD database file
#
# Track frame offsets:
#	150
#	12977
#	31830
#	44020
#	58840
#	72405
#	85667
#	99842
#	115455
#	136770
#	151755
#	168665
#	184990
#	201220
#	218757
#	238895
#
# Disc length: 3369 seconds
#
# Revision: 0
# Processed by: cddbd v1.5.2PL0 Copyright (c) Steve Scherf et al.
# Submitted via: CDex 1.70beta2
#
DISCID=df0d2710
DTITLE=Varios - Tardeadas del recuerdo
DYEAR=1991
DGENRE=Salsa
TTITLE0=Soledad
TTITLE1=A sol caliente
TTITLE2=Cumbia Sonidera
TTITLE3=Mango chupa
TTITLE4=Pedacito de mi vida
TTITLE5=La cumbia del lazo
TTITLE6=Sangre india
TTITLE7=Plegaria
TTITLE8=Llueve que llueve
TTITLE9=Cumbia de la vaca
TTITLE10=Como cumbiambero que soy
TTITLE11=La ley poderosa
TTITLE12=Te están matando los años
TTITLE13=Cumbia profeta
TTITLE14=Mundo cruel
TTITLE15=Calentana
EXTD=YEAR: 1991
EXTT0=
EXTT1=
EXTT2=
EXTT3=
EXTT4=
EXTT5=
EXTT6=
EXTT7=
EXTT8=
EXTT9=
EXTT10=
EXTT11=
EXTT12=
EXTT13=
EXTT14=
EXTT15=
PLAYORDER=
